<svg viewBox="0 0 96 96" xmlns="http://www.w3.org/2000/svg" xmlns:xlink="http://www.w3.org/1999/xlink" id="Icons_MapWithPin_M" overflow="hidden"><style>
.MsftOfcThm_Text1_Fill_v2 {
 fill:#353535; 
}
</style>
<g id="Icons"><path d="M80.386 30.694 79.561 32.517 86 35.736 86 77.264 69 68.764 69 52 67 52 67 68.764 49 77.764 49 36.236 56.38 32.546 55.554 30.723 48 34.5 28 24.5 8 34.5 8 80.5 28 70.5 48 80.5 68 70.5 88 80.5 88 34.5ZM27 68.764 10 77.264 10 35.736 27 27.236ZM47 77.764 29 68.764 29 27.236 47 36.236Z" class="MsftOfcThm_Text1_Fill_v2" stroke-width="0.653061" fill="#353535"/><path d="M67.963 17.513C70.7201 17.5098 73.2969 18.8828 74.832 21.173 76.3664 23.4412 76.6975 26.3154 75.719 28.873L71.082 39.123 67.963 45.67 64.863 39.164 60.208 28.877C59.2289 26.3122 59.5649 23.4307 61.108 21.16 62.6433 18.8763 65.2162 17.5085 67.968 17.513M67.968 15.513C64.5507 15.5094 61.3563 17.2085 59.449 20.044 57.5331 22.8718 57.1279 26.4602 58.365 29.644L63.044 39.986 67.082 48.456C67.3381 48.9453 67.9424 49.1344 68.4317 48.8783 68.6122 48.7838 68.7595 48.6365 68.854 48.456L72.893 39.986 77.571 29.644C78.8084 26.4603 78.4036 22.872 76.488 20.044 74.5802 17.2086 71.3855 15.5096 67.968 15.513Z" class="MsftOfcThm_Text1_Fill_v2" stroke-width="0.653061" fill="#353535"/><path d="M67.963 23.423C69.3062 23.423 70.395 24.5118 70.395 25.855 70.395 27.1982 69.3062 28.287 67.963 28.287 66.6198 28.287 65.531 27.1982 65.531 25.855 65.5166 24.5263 66.582 23.4374 67.9107 23.423 67.9281 23.4228 67.9456 23.4228 67.963 23.423M67.963 21.423C65.5153 21.4258 63.5332 23.4123 63.536 25.86 63.5388 28.3077 65.5253 30.2898 67.973 30.287 70.4188 30.2842 72.4 28.3008 72.4 25.855 72.4105 23.4178 70.4433 21.4335 68.0061 21.423 67.9934 21.4229 67.9807 21.4229 67.968 21.423Z" class="MsftOfcThm_Text1_Fill_v2" stroke-width="0.653061" fill="#353535"/></g></svg>