<svg width="156.4" height="159.8" viewBox="4.3 0.8 156.4 159.8" xmlns="http://www.w3.org/2000/svg" xmlns:xlink="http://www.w3.org/1999/xlink" overflow="hidden"><g id="change1_1" fill="#FF3E12"><path d="M16.334 45.551C13.476 43.321 12.623 39.288 14.473 36.057 16.491 32.512 21.002 31.283 24.549 33.302 41.042 42.733 53.535 45.266 60.698 40.685 70.191 34.558 70.766 15.902 70.169 9.193 69.815 5.142 72.797 1.562 76.867 1.184 80.96 0.827 84.564 3.827 84.869 7.84 85.015 9.19 87.722 40.839 68.719 53.115 56.457 60.97 39.138 58.633 17.225 46.135 16.911 45.962 16.612 45.768 16.334 45.551Z"/><path d="M34.546 138.688C31.571 136.367 30.818 132.156 32.833 128.905 44.046 111.182 47.501 97.463 42.806 89.201 35.834 76.767 12.277 77.154 11.999 77.125 7.928 77.313 4.535 73.992 4.436 69.949 4.331 65.87 7.525 62.493 11.609 62.388 12.944 62.306 44.207 61.915 55.633 81.863 63.311 95.406 59.833 113.851 45.361 136.808 43.135 140.234 38.583 141.275 35.138 139.075 34.937 138.954 34.731 138.833 34.546 138.688Z"/><path d="M108.068 79.447C102.955 75.458 99.5 70.593 97.634 64.837 90.678 43.184 110.101 18.968 112.351 16.274 114.89 13.211 119.388 12.718 122.548 15.184 122.593 15.221 122.64 15.257 122.734 15.329 125.867 17.925 126.291 22.556 123.697 25.689 119.079 31.322 107.877 48.454 111.694 60.331 113.779 66.667 120.446 71.346 131.345 74.246L154.023 77.957C158.072 78.614 160.769 82.437 160.109 86.444 159.431 90.479 155.65 93.214 151.623 92.534L128.299 88.689C119.904 86.515 113.132 83.4 108.068 79.447Z"/><path d="M64.923 158.018C62.32 155.988 61.347 152.352 62.717 149.159L77.884 115.156C80.71 108.463 85.938 103.492 92.841 100.878 112.392 93.552 140.56 106.71 143.708 108.232 147.448 109.957 148.901 114.418 147.104 118.063 145.352 121.744 140.924 123.298 137.239 121.506 130.274 118.165 109.593 110.362 98.036 114.728 94.866 115.916 92.761 117.941 91.447 121.064L76.233 155.219C74.547 158.914 70.174 160.587 66.462 158.923 65.906 158.678 65.389 158.38 64.923 158.018Z"/></g></svg>