<svg xmlns="http://www.w3.org/2000/svg" viewBox="0 0 120 120"><path d="M28,88 L92,88 L84,115 Q60,119 36,115Z" fill="#B5562E" stroke="#1A1A1A" stroke-width="2" stroke-linejoin="round"/><path d="M34,100 Q60,104 86,100" fill="none" stroke="#8E3F20" stroke-width="1.6"/><ellipse cx="60" cy="81" rx="33" ry="5" fill="#5B3A21" stroke="#1A1A1A" stroke-width="1.5"/><path d="M58.3,81 Q50.5,66.6 34.1,64.8 Q46.7,72.2 58.3,81Z" fill="#7CC35E" stroke="#1A1A1A" stroke-width="1" stroke-linejoin="round"/><path d="M58.7,81 Q53,63.7 37.1,55 Q47.8,68.1 58.7,81Z" fill="#7CC35E" stroke="#1A1A1A" stroke-width="1" stroke-linejoin="round"/><path d="M59.2,81 Q56.6,61.6 44,46.6 Q50.4,64.3 59.2,81Z" fill="#7CC35E" stroke="#1A1A1A" stroke-width="1" stroke-linejoin="round"/><path d="M59.7,81 Q61.1,60.8 54.3,41.6 Q54.3,61.7 59.7,81Z" fill="#7CC35E" stroke="#1A1A1A" stroke-width="1" stroke-linejoin="round"/><path d="M60.3,81 Q65.7,61.7 65.7,41.6 Q58.9,60.8 60.3,81Z" fill="#7CC35E" stroke="#1A1A1A" stroke-width="1" stroke-linejoin="round"/><path d="M60.8,81 Q69.6,64.3 76,46.6 Q63.4,61.6 60.8,81Z" fill="#7CC35E" stroke="#1A1A1A" stroke-width="1" stroke-linejoin="round"/><path d="M61.3,81 Q72.2,68.1 82.9,55 Q67,63.7 61.3,81Z" fill="#7CC35E" stroke="#1A1A1A" stroke-width="1" stroke-linejoin="round"/><path d="M61.7,81 Q73.3,72.2 85.9,64.8 Q69.5,66.6 61.7,81Z" fill="#7CC35E" stroke="#1A1A1A" stroke-width="1" stroke-linejoin="round"/><path d="M25,81 Q60,90 95,81 L95,87 Q60,96 25,87Z" fill="#B5562E" stroke="#1A1A1A" stroke-width="2" stroke-linejoin="round"/><path d="M30,86 Q60,93 90,86" fill="none" stroke="#D9825A" stroke-width="1.2"/></svg>
