<svg xmlns="http://www.w3.org/2000/svg" viewBox="0 0 120 120"><path d="M28,88 L92,88 L84,115 Q60,119 36,115Z" fill="#B5562E" stroke="#1A1A1A" stroke-width="2" stroke-linejoin="round"/><path d="M34,100 Q60,104 86,100" fill="none" stroke="#8E3F20" stroke-width="1.6"/><ellipse cx="60" cy="81" rx="33" ry="5" fill="#5B3A21" stroke="#1A1A1A" stroke-width="1.5"/><ellipse cx="48" cy="79" rx="2.8" ry="4.6" fill="#E8C77A" stroke="#1A1A1A" stroke-width="1" transform="rotate(-30 48 79)"/><ellipse cx="56" cy="81" rx="2.8" ry="4.6" fill="#E8C77A" stroke="#1A1A1A" stroke-width="1" transform="rotate(15 56 81)"/><ellipse cx="63" cy="78" rx="2.8" ry="4.6" fill="#E8C77A" stroke="#1A1A1A" stroke-width="1" transform="rotate(-10 63 78)"/><ellipse cx="70" cy="81" rx="2.8" ry="4.6" fill="#E8C77A" stroke="#1A1A1A" stroke-width="1" transform="rotate(35 70 81)"/><ellipse cx="58" cy="77" rx="2.8" ry="4.6" fill="#E8C77A" stroke="#1A1A1A" stroke-width="1" transform="rotate(70 58 77)"/><path d="M44,58 q4,6 0,8 q-4,-2 0,-8Z" fill="#7FC8E8" stroke="#1A1A1A" stroke-width="0.9"/><path d="M60,52 q4.8,7.2 0,9.6 q-4.8,-2.4 0,-9.6Z" fill="#7FC8E8" stroke="#1A1A1A" stroke-width="0.9"/><path d="M74,60 q3.6,5.4 0,7.2 q-3.6,-1.8 0,-7.2Z" fill="#7FC8E8" stroke="#1A1A1A" stroke-width="0.9"/><path d="M25,81 Q60,90 95,81 L95,87 Q60,96 25,87Z" fill="#B5562E" stroke="#1A1A1A" stroke-width="2" stroke-linejoin="round"/><path d="M30,86 Q60,93 90,86" fill="none" stroke="#D9825A" stroke-width="1.2"/></svg>
