<svg xmlns="http://www.w3.org/2000/svg" viewBox="0 0 120 120"><path d="M28,88 L92,88 L84,115 Q60,119 36,115Z" fill="#B5562E" stroke="#1A1A1A" stroke-width="2" stroke-linejoin="round"/><path d="M34,100 Q60,104 86,100" fill="none" stroke="#8E3F20" stroke-width="1.6"/><ellipse cx="60" cy="81" rx="33" ry="5" fill="#5B3A21" stroke="#1A1A1A" stroke-width="1.5"/><path d="M58.2,81 Q54.5,70 43.1,72 Q51.3,75.5 58.2,81Z" fill="#4FA65A" stroke="#1A1A1A" stroke-width="1" stroke-linejoin="round"/><path d="M58.8,81 Q57.5,68.2 46,62.6 Q52.3,71.9 58.8,81Z" fill="#4FA65A" stroke="#1A1A1A" stroke-width="1" stroke-linejoin="round"/><path d="M59.6,81 Q61.2,67.6 54.5,55.9 Q54.9,68.9 59.6,81Z" fill="#4FA65A" stroke="#1A1A1A" stroke-width="1" stroke-linejoin="round"/><path d="M60.4,81 Q65.1,68.9 65.5,55.9 Q58.8,67.6 60.4,81Z" fill="#4FA65A" stroke="#1A1A1A" stroke-width="1" stroke-linejoin="round"/><path d="M61.2,81 Q67.7,71.9 74,62.6 Q62.5,68.2 61.2,81Z" fill="#4FA65A" stroke="#1A1A1A" stroke-width="1" stroke-linejoin="round"/><path d="M61.8,81 Q68.7,75.5 76.9,72 Q65.5,70 61.8,81Z" fill="#4FA65A" stroke="#1A1A1A" stroke-width="1" stroke-linejoin="round"/><path d="M52.4,65.9 Q61.4,58.6 71.4,52.9 Q58,53.6 52.4,65.9Z" fill="#4FA65A" stroke="#1A1A1A" stroke-width="1" stroke-linejoin="round"/><path d="M50.2,56.3 Q44.6,44.1 31.2,43.3 Q41.3,49 50.2,56.3Z" fill="#4FA65A" stroke="#1A1A1A" stroke-width="1" stroke-linejoin="round"/><path d="M56,81 L46.6,41.2" fill="none" stroke="#1A1A1A" stroke-width="3.4" stroke-linecap="round"/><path d="M56,81 L46.6,41.2" fill="none" stroke="#3E8E46" stroke-width="1.8" stroke-linecap="round"/><path d="M48.3,48.4 Q47.8,34.9 37.3,26.4 Q43.2,37.2 48.3,48.4Z" fill="#4FA65A" stroke="#1A1A1A" stroke-width="1" stroke-linejoin="round"/><path d="M67.9,67.1 Q62.3,54.8 48.9,54.1 Q58.9,59.7 67.9,67.1Z" fill="#4FA65A" stroke="#1A1A1A" stroke-width="1" stroke-linejoin="round"/><path d="M70.3,58.3 Q79.2,50.9 89.3,45.3 Q75.8,46 70.3,58.3Z" fill="#4FA65A" stroke="#1A1A1A" stroke-width="1" stroke-linejoin="round"/><path d="M64,81 L74.1,44.3" fill="none" stroke="#1A1A1A" stroke-width="3.4" stroke-linecap="round"/><path d="M64,81 L74.1,44.3" fill="none" stroke="#3E8E46" stroke-width="1.8" stroke-linecap="round"/><path d="M72.3,50.9 Q77.5,39.8 83.3,28.9 Q72.8,37.4 72.3,50.9Z" fill="#4FA65A" stroke="#1A1A1A" stroke-width="1" stroke-linejoin="round"/><path d="M60.3,63.5 Q54.7,51.2 41.3,50.5 Q51.4,56.2 60.3,63.5Z" fill="#4FA65A" stroke="#1A1A1A" stroke-width="1" stroke-linejoin="round"/><path d="M60.5,52.5 Q69.4,45.1 79.5,39.5 Q66,40.2 60.5,52.5Z" fill="#4FA65A" stroke="#1A1A1A" stroke-width="1" stroke-linejoin="round"/><path d="M60,81 L60.8,35" fill="none" stroke="#1A1A1A" stroke-width="3.4" stroke-linecap="round"/><path d="M60,81 L60.8,35" fill="none" stroke="#3E8E46" stroke-width="1.8" stroke-linecap="round"/><path d="M60.6,43.3 Q65.8,32.1 71.6,21.3 Q61.1,29.8 60.6,43.3Z" fill="#4FA65A" stroke="#1A1A1A" stroke-width="1" stroke-linejoin="round"/><path d="M25,81 Q60,90 95,81 L95,87 Q60,96 25,87Z" fill="#B5562E" stroke="#1A1A1A" stroke-width="2" stroke-linejoin="round"/><path d="M30,86 Q60,93 90,86" fill="none" stroke="#D9825A" stroke-width="1.2"/></svg>
